<?xml version="1.0" standalone="no"?><!DOCTYPE svg PUBLIC "-//W3C//DTD SVG 1.1//EN" "http://www.w3.org/Graphics/SVG/1.1/DTD/svg11.dtd">
<svg
        class="icon" viewBox="0 0 1024 1024" version="1.1" xmlns="http://www.w3.org/2000/svg" width="200"
        height="200"><defs><style type="text/css"></style></defs><path d="M580.8 503.1l-69.4 94.4-76.7-94.4-39.9 0.4 93.6 120.4h-79.3l-0.4 33.8h83.8v15.5h-83.8l0.4 33.7h83.4v85.9h36.2v-85.9h83.4l0.4-33.7h-83.8v-15.5h83.8l-0.4-33.8h-81L621 503.5zM524.4 368c-5 4.7-11.5 7.2-18.4 7-6.9-0.2-13.2-3.1-17.9-8-4.9-5.2-13.2-5.5-18.4-0.5-5.2 4.9-5.5 13.2-0.5 18.4 9.5 10 22.3 15.8 36.1 16.2h1.5c13.2 0 25.8-5 35.4-14.1 20.7-19.6 21.7-52.3 2.1-73.1-4.9-5.2-13.2-5.5-18.4-0.5-5.2 4.9-5.5 13.2-0.5 18.4 9.7 10.2 9.2 26.5-1 36.2z" fill=""></path><path d="M431.5 259.4c0.2 0.3 0.3 0.6 0.5 0.9l59.2 94.7c2.5 3.9 6.7 6.1 11 6.1 2.4 0 4.7-0.6 6.9-2 6.1-3.8 7.9-11.8 4.1-17.9L454 246.5c-0.4-0.7-0.9-1.3-1.4-1.8-0.3-0.5-0.6-1.1-0.9-1.6-8.9-12.5-13.6-27.3-13.6-42.8 0-40.7 33.1-73.9 73.9-73.9s73.9 33.1 73.9 73.9c0 7.2 5.8 13 13 13s13-5.8 13-13c0-55.1-44.8-99.9-99.9-99.9-55.1 0-99.9 44.8-99.9 99.9 0 20.9 6.4 40.9 18.4 57.8 0.4 0.5 0.7 0.9 1 1.3z" fill=""></path><path d="M714 312.9L525 186.6c-7.9-5.3-18.1-5.3-26 0l-48.8 32.6c2.8 9.3 7.8 17.9 14.5 25.1l47.4-31.7 183.4 122.6v559.3H328.6V335.3l98.8-66.1c-6.1-7.5-11.2-15.8-15.1-24.7L310 312.9c-6.5 4.3-10.4 11.6-10.4 19.4v567.8c0 12.9 10.5 23.3 23.3 23.3h378c12.9 0 23.3-10.5 23.3-23.3V332.3c0.2-7.8-3.7-15-10.2-19.4z" fill=""></path></svg>