<?xml version="1.0" standalone="no"?><!DOCTYPE svg PUBLIC "-//W3C//DTD SVG 1.1//EN" "http://www.w3.org/Graphics/SVG/1.1/DTD/svg11.dtd">
<svg class="icon" viewBox="0 0 1024 1024" version="1.1" xmlns="http://www.w3.org/2000/svg"
     width="200" height="200"><defs><style type="text/css"></style></defs><path d="M850.944 166.912c-11.264 0-20.48 9.216-20.48 20.48V931.84H174.08V305.152h167.424c22.528 0 40.448-17.92 40.448-40.448V92.16h359.936c11.264 0 20.48-9.216 20.48-20.48s-9.216-20.48-20.48-20.48H350.72c-11.776 0-23.552 5.632-30.72 14.848L142.848 273.92c-6.144 7.168-9.728 16.384-9.728 26.624v631.808c0 22.528 17.92 40.448 40.448 40.448h657.408c22.016 0 40.448-18.432 40.448-40.448V187.392c0-11.264-9.216-20.48-20.48-20.48zM340.992 104.448v159.744H204.8l136.192-159.744z"></path><path d="M742.912 358.4h-435.2c-11.264 0-20.48 9.216-20.48 20.48s9.216 20.48 20.48 20.48h435.2c11.264 0 20.48-9.216 20.48-20.48s-9.216-20.48-20.48-20.48zM742.912 558.08h-435.2c-11.264 0-20.48 9.216-20.48 20.48s9.216 20.48 20.48 20.48h435.2c11.264 0 20.48-9.216 20.48-20.48s-9.216-20.48-20.48-20.48zM742.912 773.12h-435.2c-11.264 0-20.48 9.216-20.48 20.48s9.216 20.48 20.48 20.48h435.2c11.264 0 20.48-9.216 20.48-20.48s-9.216-20.48-20.48-20.48z"></path><path d="M849.92 71.68m-20.48 0a20.48 20.48 0 1 0 40.96 0 20.48 20.48 0 1 0-40.96 0Z"></path></svg>