<?xml version="1.0" standalone="no"?><!DOCTYPE svg PUBLIC "-//W3C//DTD SVG 1.1//EN"
        "http://www.w3.org/Graphics/SVG/1.1/DTD/svg11.dtd">
<svg t="1644262594535" class="icon" viewBox="0 0 1024 1024" version="1.1" xmlns="http://www.w3.org/2000/svg"
     p-id="13586" xmlns:xlink="http://www.w3.org/1999/xlink" width="200" height="200">
    <defs>
        <style type="text/css"></style>
    </defs>
    <path d="M391.6 960c-40.4 0-79.4-6.7-116.3-19.9-44.6-16-84-41-117.2-74.2s-58.2-72.6-74.2-117.2c-15.4-42.9-22-88.8-19.4-136.3 5.2-97.2 48-190.6 120.3-262.9 54.2-54.2 121-92.2 193-109.9 70.5-17.2 141.7-14.2 206.1 8.9l4.4 1.4c32.3 10.4 68.1 1 91.1-24L822.9 69.8l0.2-0.2c13.3-13.3 34.9 0.9 43 6.2 13.4 8.8 29.2 22.1 44.6 37.6s28.7 31.2 37.6 44.6c5.4 8.1 19.6 29.7 6.2 43l-0.5 0.4-155.9 143.3c-25 23-34.4 58.7-24 91.1l1.4 4.4c23.1 64.3 26.2 135.6 9 206.1-17.6 72-55.6 138.8-109.9 193-72.3 72.3-165.7 115-262.9 120.3-6.8 0.2-13.5 0.4-20.1 0.4z m75.6-701.5c-93.3 0-188.4 39.5-261.1 112.2-138 138-150 350.7-26.7 474 57.1 57.1 133.4 85.2 212.5 85.2 91.8 0 187.4-37.8 261.5-111.9 101-101.1 137.8-245.5 93.7-368l-0.2-0.5-1.5-4.6c-14-43.4-1.3-91.5 32.3-122.4l150.9-138.7c-4-8.4-16.7-26.7-39.2-49.3-22.6-22.6-40.9-35.2-49.3-39.2L701.4 246.2c-30.9 33.6-78.9 46.3-122.4 32.3l-5.1-1.6c-34.3-12.4-70.4-18.4-106.7-18.4z"
          p-id="13587"></path>
    <path d="M433.454 255.081l21.213-21.213 335.448 335.448-21.213 21.213zM857.5 941.6c-46.4 0-84.1-37.7-84.1-84.1s37.7-84.1 84.1-84.1 84.1 37.7 84.1 84.1-37.7 84.1-84.1 84.1z m0-138.2c-29.8 0-54.1 24.3-54.1 54.1s24.3 54.1 54.1 54.1 54.1-24.3 54.1-54.1-24.2-54.1-54.1-54.1z"
          p-id="13588"></path>
</svg>