<?xml version="1.0" standalone="no"?><!DOCTYPE svg PUBLIC "-//W3C//DTD SVG 1.1//EN"
        "http://www.w3.org/Graphics/SVG/1.1/DTD/svg11.dtd">
<svg t="1644262608817" class="icon" viewBox="0 0 1024 1024" version="1.1" xmlns="http://www.w3.org/2000/svg"
     p-id="14128" xmlns:xlink="http://www.w3.org/1999/xlink" width="200" height="200">
    <defs>
        <style type="text/css"></style>
    </defs>
    <path d="M118.272 774.144c-3.072 0-6.144-0.512-9.216-1.536-13.824-5.12-20.992-20.48-15.872-34.816l110.08-296.96L118.272 512c-17.92 15.36-44.032 16.384-63.488 2.56l-22.528-15.872c-16.384-11.264-24.576-31.232-21.504-51.2l30.72-187.392L15.36 235.52c-16.384-16.384-19.968-40.96-9.216-61.44C50.176 89.088 143.36 84.992 147.456 84.48c183.296-16.384 273.92 198.656 297.472 264.704l220.16-1.024c110.592-119.296 221.696-56.32 264.192-23.552 14.848 11.264 22.528 30.208 19.456 48.64-3.072 18.944-15.872 34.816-33.792 41.472L855.04 436.736l-20.48 58.368 101.888 241.152c5.632 13.824-0.512 29.696-14.336 35.328-13.824 5.632-29.696-0.512-35.328-14.336l-101.888-242.688c-5.12-12.288-5.632-25.6-1.024-37.888l21.504-59.392c5.12-14.848 16.384-26.112 31.232-31.232l57.344-20.48c-67.072-49.664-131.072-43.008-189.952 19.968-10.24 10.752-24.064 16.896-38.4 16.896H443.392c-22.016 0-41.984-13.824-49.152-34.816C373.76 310.272 296.96 125.44 151.04 138.24c-4.096 0-67.584 3.584-96.768 60.416l26.112 25.088c11.776 11.776 17.408 28.672 14.336 45.056l-30.72 187.392 21.504 13.824 87.552-75.264c19.968-16.896 49.664-16.384 69.12 1.536 15.872 14.336 20.992 36.352 13.824 56.32l-112.64 304.128c-4.096 10.752-14.336 17.408-25.088 17.408z m778.24-410.112z"
          fill="#333333" p-id="14129"></path>
    <path d="M258.048 870.4c-4.608 0-9.728-1.024-13.824-4.096-12.8-7.68-16.896-24.064-9.216-36.864 58.368-97.28 172.544-157.696 297.472-157.696 118.784 0 229.888 55.808 290.304 146.432 8.192 12.288 5.12 29.184-7.68 37.376-12.288 8.192-29.184 5.12-37.376-7.68-50.176-75.264-144.384-122.368-245.248-122.368-105.984 0-202.24 50.176-251.392 131.584-4.608 8.704-13.824 13.312-23.04 13.312zM662.528 539.136h-204.8c-14.848 0-27.136-12.288-27.136-27.136V384c0-14.848 12.288-27.136 27.136-27.136h204.8c14.848 0 27.136 12.288 27.136 27.136v128c-0.512 14.848-12.288 27.136-27.136 27.136zM484.864 484.864h150.528V411.136H484.864v73.728z"
          fill="#333333" p-id="14130"></path>
    <path d="M517.632 940.032c-191.488 0-368.64-87.04-485.888-238.08-9.216-11.776-7.168-28.672 4.608-37.888 11.776-9.216 28.672-7.168 37.888 4.608 107.008 138.24 268.8 217.088 443.392 217.088 181.248 0 352.256-88.576 457.216-236.544 8.704-12.288 25.6-14.848 37.376-6.144 12.288 8.704 14.848 25.6 6.144 37.376-114.688 162.816-302.08 259.584-500.736 259.584z"
          fill="#333333" p-id="14131"></path>
</svg>