<?xml version="1.0" standalone="no"?><!DOCTYPE svg PUBLIC "-//W3C//DTD SVG 1.1//EN"
        "http://www.w3.org/Graphics/SVG/1.1/DTD/svg11.dtd">
<svg t="1644226431256" class="icon" viewBox="0 0 1024 1024" version="1.1" xmlns="http://www.w3.org/2000/svg"
     p-id="21807" xmlns:xlink="http://www.w3.org/1999/xlink" width="200" height="200">
    <defs>
        <style type="text/css"></style>
    </defs>
    <path d="M778.70592 419.97312c-32.98304 0-64.70144 8.25856-93.0048 24.04864-25.3184-42.65472-28.3648-55.28576-34.21696-88.20224-9.1648-51.62496-6.75328-100.36736 2.78016-143.09888 1.52064-6.81984 3.01568-12.5952 4.352-17.23904l2.08896-0.43008-0.8704-3.6608c0.8704-2.78528 1.63328-4.98688 2.24256-6.55872l9.728-24.97024h104.37632c15.68768 0 28.3648-12.61568 28.3648-28.17024 0-15.6672-12.69248-28.17024-28.3648-28.17024h-337.664c-15.68768 0-28.3648 12.61056-28.3648 28.17024 0 15.6672 12.6976 28.17024 28.3648 28.17024h133.23264c-29.32736 12.17024-62.67904 31.34976-95.90272 59.52a362.24 362.24 0 0 0-49.57184 51.18976c-34.20672 43.09504-57.78944 82.30912-72.59648 116.99712-4.73088 11.09504-8.1408 20.64384-10.52672 28.65152-11.74016-1.664-23.6544-2.82112-35.85024-2.82112-140.02688 0-253.5424 113.5104-253.5424 253.53728s113.5104 253.5424 253.5424 253.5424 253.5424-113.51552 253.5424-253.5424c0-106.46016-65.69472-197.44256-158.68928-235.01824 1.69472-5.77024 4.33664-13.3888 8.55552-23.2704 12.83072-30.06464 33.8176-64.96256 64.9216-104.15104a303.37024 303.37024 0 0 1 41.54368-42.90048 306.5344 306.5344 0 0 1 79.00672-48.6656c-8.76032 46.99648-10.1632 99.2256-0.384 154.32704 6.95296 39.168 11.65312 61.2352 60.02176 125.55264a29.11232 29.11232 0 0 0 10.9568 9.11872 26.59328 26.59328 0 0 0 29.45536-1.52064c23.97696-17.83296 52.49536-27.25888 82.4832-27.25888 76.29824 0 138.368 62.06976 138.368 138.368 0 76.30336-62.06976 138.37312-138.368 138.37312-76.30336 0-138.37312-62.06976-138.37312-138.37312 0-23.62368 6.05184-46.93504 17.48992-67.4048a26.56256 26.56256 0 0 0-10.22976-36.16768 26.56768 26.56768 0 0 0-36.16256 10.22976 191.61088 191.61088 0 0 0-24.25856 93.34784c0 105.61024 85.92384 191.53408 191.5392 191.53408 105.61024 0 191.53408-85.92384 191.53408-191.53408-0.01536-105.6256-85.93408-191.54944-191.54944-191.54944z m-281.25184 246.96832c0 105.02144-85.13536 190.1568-190.1568 190.1568s-190.1568-85.13536-190.1568-190.1568c0-105.01632 85.13536-190.1568 190.1568-190.1568s190.1568 85.14048 190.1568 190.1568z"
          p-id="21808"></path>
    <path d="M312.21248 543.30368a26.624 26.624 0 0 0-3.46624 0.23552v-0.00512l-0.03584 0.01024a25.23136 25.23136 0 0 0-5.69856 1.4592c-24.90368 6.93248-44.22144 20.60288-58.1376 38.92736-12.54912 16.51712-18.49856 32.98816-20.44928 45.08672l0.14336 0.0256-0.01536 0.10752c-1.31072 13.23008 7.58272 24.93952 19.87072 26.15808 11.46368 1.14176 21.82656-7.2704 24.22272-19.1488l0.01024 0.00512c0.87552-5.4528 4.43392-15.3088 11.88864-25.12384 8.81152-11.60192 21.0944-19.90144 38.20544-23.81824l-0.01024-0.04096c10.11712-2.64704 17.536-11.26912 17.536-21.51424 0.00512-12.35456-10.77248-22.36416-24.064-22.36416z"
          p-id="21809"></path>
</svg>