<?xml version="1.0" standalone="no"?><!DOCTYPE svg PUBLIC "-//W3C//DTD SVG 1.1//EN"
        "http://www.w3.org/Graphics/SVG/1.1/DTD/svg11.dtd">
<svg t="1644262836443" class="icon" viewBox="0 0 1024 1024" version="1.1" xmlns="http://www.w3.org/2000/svg"
     p-id="15339" xmlns:xlink="http://www.w3.org/1999/xlink" width="200" height="200">
    <defs>
        <style type="text/css"></style>
    </defs>
    <path d="M785.418 532.04a81.56 81.56 0 0 0 1.713-1.368l-2.026-2.441c-10.001-118.402-35.481-239.691-76.071-360.103l-0.034-0.099c-5.61-15.954-15.558-30.923-28.01-42.151-12.726-11.474-26.629-17.793-39.147-17.793h-65.715l0.009-0.044-83.778 0.044-0.008-0.044-68.241 0.008 0.007 0.036H375.14c-25.889 0-55.396 26.219-67.173 59.691l-0.035 0.101c-76.022 225.604-99.068 454.391-66.638 661.682 5.606 34.265 39.384 62.141 75.297 62.141h383.793c17.092 0 34.369-6.488 48.651-18.269 14.442-11.913 23.908-27.704 26.662-44.52 14.896-95.18 18.049-194.94 9.721-296.871zM323.075 173.042c10.323-29.288 35.249-48.957 52.064-48.957h67.778l-0.005-0.044 78.558 0.044 0.006-0.044h35.232l-0.009 0.044h85.144c16.771 0 41.679 19.771 52.048 49.209 39.585 117.44 64.643 235.673 74.832 351.131-12.232 8.513-37.455 24.119-70.791 34.45-63.54 19.688-124.278 11.455-180.527-24.476-73.924-47.219-144.341-63.705-190.396-69.219-32.938-3.945-58.193-3.057-72.026-1.922 12.701-95.968 35.461-193.372 68.092-290.216z m436.823 653.339c-4.379 26.733-31.634 49.318-59.516 49.318H316.59c-27.935 0-55.186-22.313-59.498-48.669-17.34-110.838-18.593-227.965-4.166-347.501 11.924-1.147 38.072-2.604 72.831 1.616 44.243 5.371 111.912 21.309 183.035 66.739 33.187 21.198 68.512 33.489 104.993 36.531 6.04 0.504 12.109 0.755 18.205 0.755 23.341 0 47.039-3.687 70.678-11.012 29.561-9.16 52.936-22.073 67.544-31.455 7.287 97.401 3.928 192.681-10.314 283.678z"
          p-id="15340"></path>
</svg>