<?xml version="1.0" standalone="no"?><!DOCTYPE svg PUBLIC "-//W3C//DTD SVG 1.1//EN"
        "http://www.w3.org/Graphics/SVG/1.1/DTD/svg11.dtd">
<svg t="1644262588799" class="icon" viewBox="0 0 1024 1024" version="1.1" xmlns="http://www.w3.org/2000/svg"
     p-id="13309" xmlns:xlink="http://www.w3.org/1999/xlink" width="200" height="200">
    <defs>
        <style type="text/css"></style>
    </defs>
    <path d="M253.544577 329.980433c5.282307 3.466961 11.229762 5.124717 17.111726 5.124717 10.157337 0 20.116153-4.951779 26.119891-14.071484 9.475815-14.407128 5.479805-33.765011-8.91709-43.252083-15.093766-9.953699-31.442106-23.658839-36.866652-30.715559L250.992451 140.767024c0-7.53358 6.130627-13.665231 13.665231-13.665231l122.58185 0 0 106.61418c0 17.253966 13.985526 31.234375 31.234375 31.234375 17.248849 0 31.233352-13.980409 31.233352-31.234375L449.707258 127.102816l124.935454 0 0 106.61418c0 17.253966 13.985526 31.234375 31.233352 31.234375 17.248849 0 31.234375-13.980409 31.234375-31.234375L637.110439 127.102816l122.602316 0c7.518231 0 13.639648 6.130627 13.639648 13.665231l0 108.515483c-4.076852 6.456039-19.989263 18.992563-34.299177 26.851555-15.143908 8.266267-20.720927 27.238364-12.45466 42.377156 8.261151 15.159258 27.263947 20.73116 42.377156 12.464893 20.095687-10.970866 66.844407-40.618093 66.844407-79.019705L835.82013 140.767024c0-41.981137-34.141588-76.132958-76.107375-76.132958l-495.055073 0c-41.981137 0-76.132958 34.151821-76.132958 76.132958l0 111.189382C188.524724 275.381931 210.399941 301.633828 253.544577 329.980433z"
          p-id="13310"></path>
    <path d="M512.171915 292.330952c-184.078459 0-333.837274 149.763932-333.837274 333.842391s149.758816 333.832158 333.837274 333.832158 333.837274-149.753699 333.837274-333.832158S696.250374 292.330952 512.171915 292.330952zM512.171915 897.537773c-149.631926 0-271.369547-121.732505-271.369547-271.364431s121.737622-271.374664 271.369547-271.374664 271.369547 121.742738 271.369547 271.374664S661.803841 897.537773 512.171915 897.537773z"
          p-id="13311"></path>
    <path d="M390.283868 508.538155c-17.248849 0-31.234375 13.980409-31.234375 31.233352l0 30.470989c0 17.253966 13.985526 31.234375 31.234375 31.234375 17.248849 0 31.234375-13.980409 31.234375-31.234375l0-30.470989C421.518243 522.518564 407.532717 508.538155 390.283868 508.538155z"
          p-id="13312"></path>
    <path d="M634.059963 508.538155c-17.248849 0-31.234375 13.980409-31.234375 31.233352l0 30.470989c0 17.253966 13.985526 31.234375 31.234375 31.234375s31.234375-13.980409 31.234375-31.234375l0-30.470989C665.294338 522.518564 651.308813 508.538155 634.059963 508.538155z"
          p-id="13313"></path>
    <path d="M588.966952 649.598868c-14.544251-9.323343-33.846876-5.053086-43.149752 9.455349-0.121773 0.193405-13.379729 19.449981-33.968649 19.449981-19.99438 0-32.428573-18.107403-33.272801-19.36914-9.175987-14.427594-28.28009-18.819624-42.829458-9.760295-14.655791 9.099239-19.155269 28.356838-10.04989 43.007513 11.209296 18.047028 41.97602 48.589648 86.152149 48.589648 43.958164 0 75.100442-30.308283 86.574774-48.223305C607.725178 678.219719 603.490737 658.901745 588.966952 649.598868z"
          p-id="13314"></path>
</svg>