<?xml version="1.0" standalone="no"?><!DOCTYPE svg PUBLIC "-//W3C//DTD SVG 1.1//EN"
        "http://www.w3.org/Graphics/SVG/1.1/DTD/svg11.dtd">
<svg t="1644245121500" class="icon" viewBox="0 0 1024 1024" version="1.1" xmlns="http://www.w3.org/2000/svg"
     p-id="25752" xmlns:xlink="http://www.w3.org/1999/xlink" width="200" height="200">
    <defs>
        <style type="text/css"></style>
    </defs>
    <path d="M629.5 949.8c-3.1 0-6.1-1.2-8.5-3.5l-30.6-30.6-30.6 30.6c-4.7 4.7-12.3 4.7-17 0l-30.6-30.6-30.6 30.6c-4.7 4.7-12.3 4.7-17 0L434 915.7l-30.6 30.6c-4.7 4.7-12.3 4.7-17 0l-30.6-30.6-30.6 30.6c-4.7 4.7-12.3 4.7-17 0l-30.6-30.6-30.6 30.6c-4.7 4.7-12.3 4.7-17 0l-30.6-30.6-18.4 18.6c-3.8 3.8-9.6 4.6-14.2 2-4.7-2.6-7.1-7.9-6-13.1l27.1-124.8c1.2-5.5 6.1-9.5 11.7-9.5h625.3c5.6 0 10.5 3.9 11.7 9.5l27.1 124.8c1.1 5.2-1.3 10.5-6 13.1-4.7 2.5-10.5 1.7-14.2-2l-18.6-18.6-30.6 30.6c-4.7 4.7-12.3 4.7-17 0l-30.6-30.6-30.6 30.6c-4.7 4.7-12.3 4.7-17 0l-30.6-30.6-30.5 30.5c-2.4 2.4-5.4 3.6-8.5 3.6z m-39.1-63.1c3.1 0 6.1 1.2 8.5 3.5l30.6 30.6 30.6-30.6c4.7-4.7 12.3-4.7 17 0l30.6 30.6 30.6-30.6c4.7-4.7 12.3-4.7 17 0l30.6 30.6 30.6-30.6c4.2-4.2 10.6-4.6 15.3-1.4L815.2 813H209.3l-16.5 75.8c4.7-3.2 11.1-2.7 15.3 1.4l30.6 30.6 30.6-30.6c4.7-4.7 12.3-4.7 17 0l30.6 30.6 30.6-30.6c4.7-4.7 12.3-4.7 17 0l30.6 30.6 30.6-30.6c4.7-4.7 12.3-4.7 17 0l30.6 30.6 30.6-30.6c4.7-4.7 12.3-4.7 17 0l30.6 30.6 30.6-30.6c2.2-2.3 5.2-3.5 8.3-3.5z m234-651.7H199.1c-5.6 0-10.5-3.9-11.7-9.5l-27.1-124.8c-1.1-5.2 1.3-10.5 6-13.1 4.7-2.6 10.5-1.7 14.2 2l18.6 18.6 30.6-30.6c4.7-4.7 12.3-4.7 17 0l30.6 30.6 30.6-30.6c2.3-2.3 5.3-3.5 8.5-3.5s6.2 1.3 8.5 3.5l30.6 30.6L386 77.8c2.3-2.3 5.3-3.5 8.5-3.5s6.2 1.3 8.5 3.5l30.6 30.6 30.6-30.6c2.3-2.3 5.3-3.5 8.5-3.5s6.2 1.3 8.5 3.5l30.6 30.6 30.6-30.6c4.7-4.7 12.3-4.7 17 0l30.6 30.6 30.6-30.6c2.3-2.3 5.3-3.5 8.5-3.5s6.2 1.3 8.5 3.5l30.6 30.6 30.6-30.6c2.3-2.3 5.3-3.5 8.5-3.5s6.2 1.3 8.5 3.5l30.6 30.6L777 77.8c4.7-4.7 12.3-4.7 17 0l30.6 30.6L843 89.7c3.8-3.8 9.6-4.6 14.2-2 4.7 2.6 7.1 7.9 6 13.1l-27.1 124.8c-1.2 5.5-6.1 9.4-11.7 9.4z m-615.6-24h605.9l16.5-75.8c-4.7 3.2-11.1 2.7-15.3-1.4l-30.6-30.6-30.6 30.6c-2.3 2.3-5.3 3.5-8.5 3.5s-6.2-1.3-8.5-3.5l-30.6-30.6-30.6 30.6c-4.7 4.7-12.3 4.7-17 0L629 103.2l-30.6 30.6c-2.3 2.3-5.3 3.5-8.5 3.5s-6.2-1.3-8.5-3.5l-30.6-30.6-30.6 30.6c-2.3 2.3-5.3 3.5-8.5 3.5s-6.2-1.3-8.5-3.5l-30.6-30.6-30.6 30.6c-2.3 2.3-5.3 3.5-8.5 3.5s-6.2-1.3-8.5-3.5l-30.6-30.6-30.6 30.6c-4.7 4.7-12.3 4.7-17 0l-30.6-30.6-30.6 30.6c-2.3 2.3-5.3 3.5-8.5 3.5s-6.2-1.3-8.5-3.5L238 103.2l-30.6 30.6c-4.2 4.2-10.6 4.6-15.3 1.4l16.7 75.8zM512 644c-60.7 0-118-13-161.3-36.6-45.6-24.9-70.7-58.7-70.7-95.4s25.1-70.5 70.7-95.4C394 393 451.3 380 512 380s118 13 161.3 36.6c45.6 24.9 70.7 58.7 70.7 95.4s-25.1 70.5-70.7 95.4C630 631 572.8 644 512 644z m0-240c-56.8 0-110 12-149.8 33.7-37.5 20.5-58.2 46.9-58.2 74.3s20.7 53.9 58.2 74.3C402 608.1 455.2 620 512 620s110-12 149.8-33.7c37.5-20.5 58.2-46.9 58.2-74.3s-20.7-53.9-58.2-74.3C622 416 568.8 404 512 404z"
          p-id="25753"></path>
    <path d="M362.9 465.5c1.1 0 2.3 0 3.4 0.1 1.2 0 2.7 0.1 4.5 0.1 3.4 0 6.2 0.6 8.6 1.8 2.4 1.2 4.2 3.3 5.6 6.4 1 2.2 2 4.8 3.1 7.7s2.2 5.6 3.4 8.2c1.2 2.6 2.3 4.8 3.4 6.5 1.1 1.8 2.2 2.6 3.1 2.6s1.7-0.6 2.3-1.9c0.6-1.3 1-2.7 1.3-4.2l2.4-16.4c0.4-2.5 1.1-4.4 2.1-5.9 1-1.4 2.2-2.6 3.5-3.4 1.4-0.8 2.9-1.3 4.5-1.6 1.6-0.2 3.3-0.4 5-0.4 1.5 0 3 0.1 4.5 0.3 1.5 0.2 2.8 0.6 3.8 1.2 1.1 0.6 2 1.4 2.6 2.4 0.7 1 1 2.3 1 3.8 0 1.4-0.1 2.7-0.2 4-0.1 1.3-0.3 2.7-0.4 4-1.3 9.2-2.6 18.4-3.8 27.6-1.3 9.2-2.6 18.4-4 27.6-0.4 2.4-1 4.4-1.8 5.9s-1.8 2.7-3.1 3.6c-1.2 0.9-2.8 1.5-4.6 1.8-1.8 0.3-3.9 0.5-6.2 0.5-2.7 0-5.4-0.2-8-0.7-2.4-0.4-4.4-1.4-6.1-3.1-1.7-1.7-3.2-3.7-4.4-6-1.3-2.3-2.4-4.8-3.4-7.4-1-2.6-2-5.1-3.1-7.4-0.4-0.8-0.8-1.8-1.3-2.9-0.4-1.1-0.9-2.2-1.4-3.1-0.5-1-1.1-1.8-1.7-2.5-0.6-0.7-1.3-1-2-1-1.1 0-1.9 0.4-2.5 1.1-0.5 0.8-0.9 1.6-1 2.5l-2.2 13.6c-0.5 3.4-1 6.1-1.6 8.3-0.6 2.2-1.4 3.9-2.5 5.2-1.1 1.2-2.5 2.1-4.3 2.6-1.8 0.5-4.1 0.7-7 0.7-4.1 0-7.2-0.5-9.5-1.6-2.2-1-3.4-3.2-3.4-6.5 0-3 0.3-6.2 0.9-9.5 0.6-3.3 1.1-6.4 1.5-9.5l5.9-41.6c0.5-2.5 1-4.6 1.6-6.3 0.6-1.7 1.4-3.1 2.3-4.2s2.2-1.9 3.6-2.3c1.7-0.4 3.5-0.7 5.6-0.7z m104.1 82c-1.8 0-3.5-0.1-5.1-0.2-1.6-0.2-2.9-0.5-4.1-1-1.2-0.5-2.1-1.3-2.8-2.3-0.7-1-1-2.3-1-3.9 0-1.4 0.1-2.7 0.2-4 0.1-1.3 0.3-2.6 0.4-4 1.4-9.4 2.7-18.7 4-28 1.3-9.3 2.7-19.1 4-29.2 0.5-2.1 1.1-3.8 1.9-5 0.8-1.3 1.8-2.3 3.1-3 1.3-0.7 2.8-1.2 4.6-1.4 1.8-0.2 4-0.4 6.5-0.4 1.9 0 3.7 0.1 5.3 0.2 1.6 0.2 3 0.5 4.2 1 1.2 0.5 2.1 1.2 2.8 2.2 0.7 1 1 2.2 1 3.7 0 2.4-0.2 4.8-0.5 7.1-0.3 2.4-0.6 4.7-1 7-1 7.8-2.1 15.6-3.2 23.4-1.1 7.8-2.2 15.6-3.2 23.4-0.4 3.2-1 5.8-1.7 7.7-0.8 1.9-1.8 3.4-3.1 4.4-1.3 1-3 1.6-5 1.9-2 0.2-4.4 0.4-7.3 0.4z m114.3-15c0 3.1-0.9 5.6-2.8 7.6-1.9 1.9-4.2 3.4-7.1 4.4-2.8 1-5.9 1.7-9.2 2-3.3 0.3-6.3 0.5-9 0.5-6.1 0-11.4-1-15.9-3s-8.3-4.7-11.3-8.1c-3-3.4-5.3-7.4-6.8-12s-2.3-9.5-2.3-14.8c0-7 1.4-13.2 4.1-18.8 2.8-5.6 6.4-10.4 11-14.3 4.6-4 9.8-7 15.7-9.2s12-3.2 18.3-3.2c1.9 0 4.2 0.1 7 0.4 2.7 0.3 5.3 0.8 7.9 1.6 2.5 0.8 4.7 1.8 6.4 3.2 1.8 1.4 2.6 3.2 2.6 5.3 0 1.8-0.3 3.5-0.8 5.3-0.5 1.8-1.2 3.4-2.2 4.8-0.9 1.4-2 2.6-3.4 3.5-1.3 0.9-2.8 1.3-4.5 1.3-1.1 0-2.2-0.2-3.3-0.5-1.1-0.4-2.1-0.7-3.2-1.1-2.6-1-5.2-1.4-7.7-1.4-2.6 0-5 0.5-7.3 1.4-2.3 1-4.3 2.3-6.1 4-1.7 1.7-3.1 3.7-4.2 6.1-1.1 2.4-1.7 5-1.7 7.9 0 2.7 0.3 5.2 1 7.5s1.7 4.3 3.2 5.9c1.4 1.7 3.2 3 5.3 3.9 2.1 0.9 4.6 1.4 7.5 1.4 2.2 0 4.6-0.4 7-1.1 2.4-0.7 4.7-1.1 6.7-1.1 1.8 0 3.1 1 3.9 3 0.9 1.7 1.2 4.3 1.2 7.6z m41.6 14.9c-4.2 0-7.4-0.6-9.7-1.7-2.3-1.1-3.5-3.4-3.5-6.7 0-2.3 0.2-4.7 0.7-7.2 0.4-2.5 0.9-4.9 1.3-7.2l6.5-45.8c0.3-2.6 0.8-4.8 1.4-6.5 0.6-1.7 1.4-3.1 2.5-4.2s2.4-1.8 4.1-2.3c1.6-0.4 3.6-0.7 5.9-0.7h40.1c3.2 0 5.8 0.5 7.8 1.6s3 3 3 5.7c0 9.7-3.7 14.7-11.2 15-1.4 0.1-3.5 0.1-6.1 0-2.6-0.1-5.2-0.1-7.7 0.1-2.6 0.1-4.8 0.5-6.7 1.1-1.9 0.6-2.8 1.6-2.8 2.9 0 0.4 0.2 0.9 0.6 1.6 0.4 0.6 0.9 1 1.6 1.2 1.4 0.6 2.9 0.9 4.6 1.1 1.7 0.2 3.4 0.3 5.2 0.3 1.8 0 3.5 0.1 5.2 0.2 1.7 0.1 3.2 0.4 4.4 1 1.3 0.5 2.3 1.3 3.1 2.4 0.8 1.1 1.2 2.6 1.2 4.5 0 3.4-0.8 6.2-2.3 8.4-1.6 2.2-3.7 3.5-6.5 3.8-1.7 0.2-3.7 0.2-6.1 0.2-2.4 0-4.7 0.1-7 0.4s-4.2 0.7-5.8 1.3c-1.6 0.6-2.4 1.6-2.4 2.9 0 1.4 0.8 2.4 2.3 3 1.6 0.6 3.5 0.9 5.8 1.1 2.3 0.2 4.7 0.2 7.4 0.1 2.6-0.1 5 0 7.2 0.1 2.8 0.2 4.8 0.9 5.9 2.2 1.2 1.3 1.7 3.2 1.7 5.9 0 2.9-0.3 5.2-1 7.1-0.7 1.8-1.7 3.3-3 4.4-1.3 1.1-2.9 1.8-4.8 2.2-1.9 0.4-4.1 0.6-6.5 0.6h-36.4zM824 734h-94c-6.6 0-12-5.4-12-12s5.4-12 12-12h94c6.6 0 12 5.4 12 12s-5.4 12-12 12zM296 314h-94c-6.6 0-12-5.4-12-12s5.4-12 12-12h94c6.6 0 12 5.4 12 12s-5.4 12-12 12z"
          p-id="25754"></path>
    <path d="M835.6 817H188.4l-0.9-11.1C181 723 170 574.6 170 513.1c0-61.9 11.1-211.4 17.7-295l0.9-11.1h646.9l0.9 11.1c6.6 83.6 17.7 233.1 17.7 295 0 61.5-11 209.9-17.5 292.9l-1 11z m-625-24h602.9C820 708.9 830 571.2 830 513.1c0-58.5-10.1-197.3-16.7-282.1H210.8c-6.6 84.8-16.7 223.6-16.7 282.1-0.1 58.1 9.9 195.8 16.5 279.9z"
          p-id="25755"></path>
</svg>